<svg xml:space="preserve" style="max-height: 500px" viewBox="277.52530933633295 166.32 404.9493813273341 211.68" y="0px" x="0px" xmlns:xlink="http://www.w3.org/1999/xlink" xmlns="http://www.w3.org/2000/svg" id="Layer_1" version="1.1" width="404.9493813273341" height="211.68">
<style type="text/css">
	.st0{fill:#fff;}
	.st1{fill:#FFFFFF;}
	.st2{fill:#fff;}
	.st3{fill-rule:evenodd;clip-rule:evenodd;fill:#fff;}
	.st4{fill:#fff;}
	.st5{opacity:0.13;clip-path:url(#SVGID_00000092428831508436698340000005080327524148514218_);}
	.st6{opacity:0.13;clip-path:url(#SVGID_00000003790694687123283200000002664612810005788088_);}
	.st7{opacity:0.13;clip-path:url(#SVGID_00000029043928251189004940000003904210270884354475_);}
	.st8{opacity:0.13;clip-path:url(#SVGID_00000022543069196030927320000017684052989342099127_);}
	.st9{opacity:0.13;clip-path:url(#SVGID_00000050647534031492853400000009930707043572645275_);}
	.st10{fill:#F7F7F7;}
	.st11{fill-rule:evenodd;clip-rule:evenodd;fill:#FFFFFF;}
	.st12{opacity:0.13;clip-path:url(#SVGID_00000083048509955730252490000012891047826358429572_);}
	.st13{fill:none;stroke:#404040;stroke-width:0.8208;stroke-miterlimit:10;}
	.st14{fill:none;stroke:#404040;stroke-width:0.8208;stroke-miterlimit:10;stroke-dasharray:10.2839,10.2839;}
	.st15{fill:none;stroke:#404040;stroke-width:0.6198;stroke-miterlimit:10;}
	.st16{fill:none;stroke:#404040;stroke-width:0.6198;stroke-miterlimit:10;stroke-dasharray:7.2848,7.2848;}
	.st17{fill:none;stroke:#404040;stroke-width:0.6228;stroke-miterlimit:10;}
	.st18{fill:none;stroke:#404040;stroke-width:0.6228;stroke-miterlimit:10;stroke-dasharray:7.356,7.356;}
	.st19{opacity:0.5;fill:#3D3D3D;}
	.st20{opacity:0.13;clip-path:url(#SVGID_00000170237277316521607840000016097967529159095199_);}
	.st21{opacity:0.13;clip-path:url(#SVGID_00000093874230738579313960000009209961932416169398_);}
	.st22{opacity:0.13;clip-path:url(#SVGID_00000175318905069957853090000005739145174888306086_);}
	.st23{opacity:0.13;clip-path:url(#SVGID_00000081608788366059530870000014272958405437433274_);}
	.st24{opacity:0.13;clip-path:url(#SVGID_00000055684271496782117690000005703573434688696195_);}
	.st25{opacity:0.13;clip-path:url(#SVGID_00000002370231860515252050000015292491458572328108_);}
	.st26{opacity:0.13;clip-path:url(#SVGID_00000004519488173342852580000000646966338863780248_);}
	.st27{opacity:0.13;clip-path:url(#SVGID_00000059301087059069135770000013895153934505651620_);}
	.st28{fill:none;stroke:#404040;stroke-width:0.8844;stroke-miterlimit:10;}
	.st29{fill:none;stroke:#838383;stroke-width:1.0796;stroke-miterlimit:10;}
	.st30{fill:#FFFFFF;stroke:#7C7C7C;stroke-miterlimit:10;}
	.st31{opacity:0.71;fill:#603B1C;}
	.st32{fill:#262626;}
	.st33{fill-rule:evenodd;clip-rule:evenodd;fill:#262626;}
	.st34{fill:#39B54A;stroke:#E0E0E0;stroke-width:2;stroke-miterlimit:10;}
	.st35{opacity:0.13;clip-path:url(#SVGID_00000023964627972198487270000007970416085231437756_);}
	.st36{fill-rule:evenodd;clip-rule:evenodd;fill:#0C4944;}
	.st37{fill:#E22020;stroke:#E0E0E0;stroke-width:2;stroke-miterlimit:10;}
	.st38{opacity:0.13;}
	.st39{fill:none;stroke:#1A1B1C;stroke-width:0.75;stroke-miterlimit:10;}
	.st40{opacity:0.13;clip-path:url(#SVGID_00000155838922616779180660000010612284606774936754_);}
	.st41{opacity:0.13;clip-path:url(#SVGID_00000044142469172189996830000004249672225066226584_);}
	.st42{opacity:0.2;clip-path:url(#SVGID_00000010291402766172444120000008031340543469616008_);}
	.st43{fill:none;stroke:#8E8E8E;stroke-miterlimit:10;}
	.st44{opacity:0.2;clip-path:url(#SVGID_00000052104136469289506890000014700016195124668579_);}
	.st45{opacity:0.35;clip-path:url(#SVGID_00000170271343883084162430000006308079872542176156_);}
	.st46{opacity:0.1;}
	.st47{fill:#FFEFE4;}
	.st48{fill:#FFEFE3;}
	.st49{opacity:0.39;}
	.st50{opacity:0.68;}
	.st51{opacity:0.13;clip-path:url(#SVGID_00000166644925199316276740000015018698826033382063_);}
	.st52{opacity:0.13;clip-path:url(#SVGID_00000042728296193816638570000011279583482193084040_);}
	.st53{opacity:0.13;clip-path:url(#SVGID_00000160175818106853749740000002956398855182890122_);}
	.st54{fill:#FFFFFF;stroke:#A8A8A8;stroke-width:0.5;stroke-miterlimit:10;}
	.st55{clip-path:url(#SVGID_00000178922908181008360360000002675132445824217790_);}
	.st56{opacity:0.13;clip-path:url(#SVGID_00000056394162640841089080000015927129846331312814_);}
	.st57{opacity:7.000000e-02;clip-path:url(#SVGID_00000168816760642908454910000001852685367415891368_);}
	.st58{fill:none;stroke:#E9E9E9;stroke-width:0.5;stroke-miterlimit:10;}
	.st59{opacity:0.13;clip-path:url(#SVGID_00000039813745644148976250000000617247616031294364_);}
	.st60{fill:#FFFFFF;stroke:#A8A8A8;stroke-width:0.4504;stroke-miterlimit:10;}
	.st61{opacity:9.000000e-02;clip-path:url(#SVGID_00000082350540577071157100000002460862164151644591_);}
	.st62{fill:none;stroke:#0C4944;stroke-width:0.1617;stroke-miterlimit:10;}
	.st63{opacity:0.13;clip-path:url(#SVGID_00000118368047263850934500000011129436679467178665_);}
	.st64{opacity:0.13;clip-path:url(#SVGID_00000038382113618940674540000001334057189189808563_);}
	.st65{fill:#FFFFFF;stroke:#595959;stroke-width:0.3928;stroke-miterlimit:10;}
	.st66{opacity:0.15;}
	.st67{fill-rule:evenodd;clip-rule:evenodd;}
	.st68{fill:none;stroke:#1D1D1B;stroke-width:9.821118e-02;stroke-linecap:round;stroke-miterlimit:10;}
	.st69{fill:none;stroke:#1D1D1B;stroke-width:0.1964;stroke-linecap:round;stroke-miterlimit:10;}
	.st70{fill-rule:evenodd;clip-rule:evenodd;fill:#595959;}
	.st71{fill:#595959;}
	.st72{clip-path:url(#SVGID_00000001623661452822162760000007422116019611509172_);fill:#0C4944;}
	.st73{opacity:0.58;clip-path:url(#SVGID_00000001623661452822162760000007422116019611509172_);}
	.st74{opacity:0.58;}
	.st75{opacity:0.2;clip-path:url(#SVGID_00000135688519851332413910000001045857995820835987_);}
	.st76{opacity:0.2;clip-path:url(#SVGID_00000065787072611036688600000006746871591257702788_);}
	.st77{clip-path:url(#SVGID_00000001623661452822162760000007422116019611509172_);}
	.st78{clip-path:url(#SVGID_00000167382384168562498420000008251463884520797320_);fill:#0C4944;}
	.st79{opacity:0.58;clip-path:url(#SVGID_00000167382384168562498420000008251463884520797320_);}
	.st80{opacity:0.2;clip-path:url(#SVGID_00000121961772688100522090000010755371840589947781_);}
	.st81{opacity:0.2;clip-path:url(#SVGID_00000137821657194057590330000016442630900757779871_);}
	.st82{clip-path:url(#SVGID_00000167382384168562498420000008251463884520797320_);}
	.st83{fill:#E1E0E0;}
	.st84{opacity:0.13;clip-path:url(#SVGID_00000063597339393919105360000005990956277183606183_);}
	.st85{opacity:0.13;clip-path:url(#SVGID_00000088125790105309769110000016539843946718350772_);}
	.st86{opacity:0.13;clip-path:url(#SVGID_00000016055185976152203840000008633503170287494298_);}
	.st87{opacity:0.13;clip-path:url(#SVGID_00000080923373693090774990000000644411731263870113_);}
	.st88{opacity:0.13;clip-path:url(#SVGID_00000155109751033637566230000006492880771915867526_);}
	.st89{opacity:0.13;clip-path:url(#SVGID_00000176724052711144678310000001626545114009836935_);}
	.st90{opacity:0.13;clip-path:url(#SVGID_00000016043987331814315490000009060132990970296996_);}
	.st91{opacity:0.13;clip-path:url(#SVGID_00000003792063301429488150000008711921296063976102_);}
	.st92{opacity:0.13;clip-path:url(#SVGID_00000035532719723026052290000009442630031287525821_);}
	.st93{opacity:0.2;clip-path:url(#SVGID_00000065035742828447054390000001392058802540162966_);}
	.st94{opacity:0.2;clip-path:url(#SVGID_00000170994878562851701150000010236386720825553578_);}
	.st95{opacity:0.13;clip-path:url(#SVGID_00000005957437245692000320000003161621354388946107_);}
	.st96{clip-path:url(#SVGID_00000102535902250998362680000004154248497542826136_);fill:#FFFFFF;}
	.st97{opacity:0.58;clip-path:url(#SVGID_00000102535902250998362680000004154248497542826136_);}
	.st98{opacity:0.2;clip-path:url(#SVGID_00000138548795063876669980000000371151561918888882_);}
	.st99{opacity:0.2;clip-path:url(#SVGID_00000022560639449385917020000007957960213626166455_);}
	.st100{opacity:0.2;clip-path:url(#SVGID_00000083071244363777011990000002002429984699646140_);}
	.st101{clip-path:url(#SVGID_00000027598123713421620570000012743749863941484436_);fill:#FFFFFF;}
	.st102{opacity:0.58;clip-path:url(#SVGID_00000027598123713421620570000012743749863941484436_);}
	.st103{opacity:0.2;clip-path:url(#SVGID_00000092426847304764875670000011268160859415512975_);}
	.st104{opacity:0.2;clip-path:url(#SVGID_00000176004458034661967610000001382098247124021636_);}
	.st105{opacity:0.2;clip-path:url(#SVGID_00000011725709369003587720000017057170771236801682_);}
	.st106{clip-path:url(#SVGID_00000073679839813961873100000000104708058247173800_);fill:#0C4944;}
	.st107{opacity:0.58;clip-path:url(#SVGID_00000073679839813961873100000000104708058247173800_);}
	.st108{opacity:0.2;clip-path:url(#SVGID_00000069369842442908133080000003531072307048569223_);}
	.st109{opacity:0.2;clip-path:url(#SVGID_00000056407534457668479640000007322682430387856549_);}
	.st110{opacity:0.2;clip-path:url(#SVGID_00000099642918964157748850000000127043129965984148_);}
	.st111{clip-path:url(#SVGID_00000051370649262919854780000009180903642031880888_);fill:#0C4944;}
	.st112{opacity:0.58;clip-path:url(#SVGID_00000051370649262919854780000009180903642031880888_);}
	.st113{opacity:0.2;clip-path:url(#SVGID_00000090994021107114934180000013965877071394882961_);}
	.st114{opacity:0.2;clip-path:url(#SVGID_00000024723256149291191960000016961464581079693464_);}
	.st115{opacity:0.2;clip-path:url(#SVGID_00000114795069789322913570000002010706095618499992_);}
	.st116{opacity:0.13;clip-path:url(#SVGID_00000121983555545471066590000012390325835794077315_);}
	.st117{opacity:0.13;clip-path:url(#SVGID_00000176764223701540526710000007279342020065397939_);}
	.st118{opacity:0.13;clip-path:url(#SVGID_00000060729388579359084460000010881164903251786914_);}
</style>
<g>
	<defs>
		<rect height="539.8" width="959.9" y="-560" x="0.1" id="SVGID_00000067233257695976733710000017702453376226810792_"/>
	</defs>
	<clipPath id="SVGID_00000057826613361936484530000002392438056365017246_">
		
	</clipPath>
	<g style="opacity:0.13;clip-path:url(#SVGID_00000057826613361936484530000002392438056365017246_);">
		<path d="M325.8,78.9c-37.7-14.9-78-25.7-118.7-26c-51.4,0.8-99.6,21.6-150.2,28.6c-20.5,2.7-43.3,1.4-60.8-11.1&#10;&#9;&#9;&#9;C-21.8,57.5-32.1,35.8-25.4,14c4.2-15.3,13.2-28.9,25.1-39.2c3.9-3.4,8.3-6.3,12.4-9.2c8.1-5.9,16.7-12.7,21.5-21.2&#10;&#9;&#9;&#9;c-1.8,4.9-5.3,8.9-8.7,12.7C18.1-35.3,9.2-29.6,1.8-22.8c-10.8,10.3-19,23.6-22.6,38c-4.8,17.2,1.5,34.2,14.4,46.1&#10;&#9;&#9;&#9;c16.5,15.8,40.8,17.8,62.6,14.9c30.4-4,59.6-13.2,89.6-19.4c30-6.7,61.4-10.1,92-4.9c30.4,4.9,60,14.1,88.1,26.5&#10;&#9;&#9;&#9;c0.1,0.1,0.2,0.2,0.1,0.3C326.1,78.9,325.9,78.9,325.8,78.9L325.8,78.9z" class="st4"/>
	</g>
</g>
<g>
	<defs>
		<rect height="539.8" width="959.9" y="-560" x="-979.9" id="SVGID_00000081646567085265679170000003642487639267310465_"/>
	</defs>
	<clipPath id="SVGID_00000173150877081589287860000015584842089549097398_">
		
	</clipPath>
</g>
<g>
	<g>
		<defs>
			<rect height="539.8" width="959.9" y="-559.9" x="980" id="SVGID_00000080916884501080953160000014172202018791824023_"/>
		</defs>
		<clipPath id="SVGID_00000059296584716892649320000001950906959895719303_">
			
		</clipPath>
		<g style="opacity:0.13;clip-path:url(#SVGID_00000059296584716892649320000001950906959895719303_);">
			<path d="M1543.3,161.8c-66.1-26-136.5-44.9-207.7-45.5c-89.9,1.4-174.3,37.9-262.8,50.1c-36,4.7-75.7,2.5-106.4-19.5&#10;&#9;&#9;&#9;&#9;c-31.3-22.5-49.3-60.4-37.6-98.6c7.3-26.8,23.1-50.5,43.9-68.6c6.9-6,14.6-11,21.8-16.1c14.1-10.3,29.3-22.2,37.7-37.2&#10;&#9;&#9;&#9;&#9;c-3.1,8.5-9.2,15.6-15.2,22.2c-11.9,13.3-27.5,23.2-40.5,35.2c-18.9,18-33.2,41.3-39.5,66.6c-8.5,30,2.7,59.9,25.2,80.7&#10;&#9;&#9;&#9;&#9;c28.9,27.7,71.5,31.2,109.6,26.2c53.1-6.9,104.3-23,156.9-34c52.5-11.7,107.4-17.6,161-8.6c53.2,8.5,105.1,24.6,154.2,46.4&#10;&#9;&#9;&#9;&#9;c0.2,0.1,0.3,0.4,0.2,0.6C1543.8,161.8,1543.5,161.9,1543.3,161.8L1543.3,161.8z" class="st4"/>
		</g>
	</g>
</g>
<g>
	<g>
		<g>
			<g>
				<path d="M310.9,310.3l-17.2-25.8c-1.9-2.8-4.1-5.2-6.4-7.3c-2.3-2.1-4.5-3.2-6.6-3.4v-1.9h10.6c3.3,0,6.3,1,9,3.1&#10;&#9;&#9;&#9;&#9;&#9;c2.7,2.1,5,4.6,6.8,7.6l13.2,19.9l18.8-30.6h6.3l-22,35.8v28.3h-12.6V310.3z" class="st2"/>
				<path d="M404.8,349.5h4.9c1.2,0,2.1-0.3,2.8-0.9c0.7-0.6,1.1-1.3,1.1-2.2c0-1-0.4-1.7-1.1-2.3&#10;&#9;&#9;&#9;&#9;&#9;c-0.7-0.6-1.7-0.9-2.8-0.9h-4.4v-6.5c-5.6-0.4-9.5-1.7-11.9-3.8c-1-1-1.7-2.3-1.9-4.1c-0.3-1.8-0.4-4.3-0.4-7.4h3.4&#10;&#9;&#9;&#9;&#9;&#9;c0.6,3.4,1.9,6.1,4,8.1c2.1,2,5,3.1,8.6,3.1c6.5,0,9.7-2.2,9.7-6.6c0-1.7-0.7-3.1-2.1-4.2c-1.4-1.1-3.6-2.3-6.7-3.7l-5-2.1&#10;&#9;&#9;&#9;&#9;&#9;c-4.1-1.8-7.3-3.8-9.3-5.9c-2.1-2.1-3.1-4.7-3.1-7.8c0-4.1,1.7-7.2,5.1-9.5c3.4-2.3,7.8-3.4,13.4-3.4c7.6,0,12.8,1.3,15.6,4&#10;&#9;&#9;&#9;&#9;&#9;c1,1,1.7,2.3,1.9,4.1c0.3,1.7,0.4,4.2,0.4,7.5h-3.4c-0.6-3.4-1.9-6.1-4-8.1c-2.1-2-5-3.1-8.6-3.1c-2.8,0-4.9,0.6-6.2,1.8&#10;&#9;&#9;&#9;&#9;&#9;c-1.4,1.2-2,2.8-2,4.8c0,1.6,0.6,3,1.7,4c1.1,1.1,2.9,2.1,5.2,3.2l5.8,2.4c4.8,2,8.2,4,10.3,6.1c2.1,2,3.2,4.7,3.2,8&#10;&#9;&#9;&#9;&#9;&#9;c0,3.8-1.6,6.7-4.7,9c-3.1,2.2-7.3,3.5-12.6,3.8v2c2.7,0,4.9,0.7,6.4,2c1.6,1.4,2.3,3.2,2.3,5.5c0,2.3-0.8,4.2-2.3,5.5&#10;&#9;&#9;&#9;&#9;&#9;c-1.6,1.4-3.7,2-6.4,2h-6.8V349.5z" class="st2"/>
				<path d="M439.8,302.9c0-3.3-0.5-5.7-1.4-7.3c-0.9-1.6-2.7-2.4-5.4-2.4h-1v-2.9h11.7c2.3,0,4.1,0.4,5.3,1.2&#10;&#9;&#9;&#9;&#9;&#9;c1.2,0.8,2.1,2.1,2.6,3.8c0.5,1.8,0.8,4.3,0.8,7.6v33h-12.6V302.9z M440.8,282.9c-1.3-1.4-1.9-3.2-1.9-5.2c0-1.7,0.5-3,1.5-4&#10;&#9;&#9;&#9;&#9;&#9;c1-1,2.3-1.5,3.8-1.5c2.3,0,4.1,0.7,5.4,2.1c1.3,1.4,1.9,3.2,1.9,5.2c0,1.7-0.5,3-1.5,4c-1,1-2.3,1.5-3.8,1.5&#10;&#9;&#9;&#9;&#9;&#9;C443.8,285,442,284.3,440.8,282.9z" class="st2"/>
				<path d="M466.1,284.5c0-3.3-0.5-5.7-1.4-7.3c-0.9-1.6-2.7-2.4-5.4-2.4h-1v-2.9h11.7c2.3,0,4.1,0.4,5.3,1.2&#10;&#9;&#9;&#9;&#9;&#9;c1.2,0.8,2.1,2.1,2.6,3.8c0.5,1.8,0.8,4.3,0.8,7.6v51.5h-12.6V284.5z" class="st2"/>
				<path d="M518.4,284.5c0-3.3-0.5-5.7-1.4-7.3c-0.9-1.6-2.7-2.4-5.4-2.4h-1v-2.9H537c13.1,0,23,2.8,29.9,8.3&#10;&#9;&#9;&#9;&#9;&#9;c6.8,5.5,10.2,13.3,10.2,23.4c0,6.4-1.4,12.1-4.3,16.9c-2.9,4.9-7.2,8.7-12.8,11.4c-5.7,2.7-12.5,4.1-20.4,4.1h-21.2V284.5z&#10;&#9;&#9;&#9;&#9;&#9; M539.3,332c4.5,0,8.6-1.1,12.1-3.4c3.5-2.3,6.3-5.5,8.3-9.8c2-4.3,3-9.3,3-15c0-5.6-1-10.6-3-14.8c-2-4.2-4.7-7.5-8.3-9.9&#10;&#9;&#9;&#9;&#9;&#9;c-3.6-2.3-7.6-3.5-12.2-3.5h-0.8c-2.1,0-3.9,0.1-5.1,0.4l-2.1,0.3v55l2.1,0.4c1.4,0.2,3.1,0.3,5.1,0.3H539.3z" class="st2"/>
				<path d="M587.8,333.3c-2.9-2.4-4.3-5.6-4.3-9.6c0-3.2,0.8-5.9,2.3-8.1c1.5-2.1,4.2-3.8,8-4.9&#10;&#9;&#9;&#9;&#9;&#9;c3.8-1.1,9.1-1.7,15.9-1.7h1.5c0-5.6-0.8-9.6-2.3-12c-1.6-2.4-3.9-3.5-6.9-3.5c-2.5,0-4.6,0.6-6.2,1.8c-1.6,1.2-2.8,3.5-3.5,6.9&#10;&#9;&#9;&#9;&#9;&#9;h-5.3c0-2.2,0.1-4.1,0.4-5.6c0.3-1.6,1-2.9,2-4.1c2-2.3,6.9-3.4,14.6-3.4c6.5,0,11.4,1.7,14.8,5.1c3.4,3.4,5.1,8.5,5.1,15.3&#10;&#9;&#9;&#9;&#9;&#9;v26.2h-8.3l-3.4-4.4h-0.5c-0.6,0.9-1.5,1.8-2.7,2.7c-2.2,1.7-5.2,2.6-8.9,2.6C594.7,336.9,590.7,335.7,587.8,333.3z&#10;&#9;&#9;&#9;&#9;&#9; M606.4,331.2c1-0.5,1.9-1.3,2.8-2.3c0.8-0.9,1.5-2,1.9-3.2v-12.1h-1.5c-4.6,0-7.9,0.8-10,2.5c-2.1,1.7-3.1,4.2-3.1,7.7&#10;&#9;&#9;&#9;&#9;&#9;c0,2.7,0.5,4.7,1.6,6.1c1.1,1.4,2.7,2.1,4.7,2.1C604.2,332,605.4,331.8,606.4,331.2z" class="st2"/>
				<path d="M636.6,302.9c0-3.3-0.4-5.7-1.3-7.3c-0.9-1.6-2.7-2.4-5.4-2.4h-1v-2.9h9.6c2.2,0,3.9,0.3,5.2,0.8&#10;&#9;&#9;&#9;&#9;&#9;c1.3,0.6,2.2,1.5,3,2.8c3.3-3,8-4.6,14.2-4.6c6.1,0,10.8,1.4,13.8,4.3c3.1,2.9,4.6,7.4,4.6,13.5v28.7h-12.6v-28.8&#10;&#9;&#9;&#9;&#9;&#9;c0-4.5-0.8-7.7-2.5-9.8c-1.7-2.1-3.9-3.1-6.7-3.1c-2,0-3.8,0.3-5.3,0.8c-1.5,0.6-2.7,1.3-3.6,2.2l0.3,1.4c0.3,0.8,0.4,2,0.4,3.8&#10;&#9;&#9;&#9;&#9;&#9;v33.6h-12.6V302.9z" class="st2"/>
			</g>
		</g>
		<g>
			<g>
				<g>
					<g>
						<path d="M476.4,209.5c-8-4-19-5-29.1-1.8c-0.2,0.1,12.2,4,12,4.1c0.1,0.2-12.5-3.5-12.4-3.4&#10;&#9;&#9;&#9;&#9;&#9;&#9;&#9;c3.8,6.8,12.6,10.9,22.7,11.5c6.4,0.4,12.1-1.8,17.4-1.4l13.8,1.3c-4-1.5-10.1-1.4-13.9-2.8&#10;&#9;&#9;&#9;&#9;&#9;&#9;&#9;C483.7,215.9,480.6,211.5,476.4,209.5L476.4,209.5z" class="st3"/>
					</g>
					<g>
						<path d="M556.2,238.9c-2.3-4.4-6.8-7.1-9.4-10.7c-2.1-2.9-2.9-10.7-5.8-15.4c-3.9-6.4-13.9-15-21.3-16.4&#10;&#9;&#9;&#9;&#9;&#9;&#9;&#9;c-0.3-0.1,7,9.6,6.7,9.6c0,0.2-7.6-9.3-7.6-9c0.5,12.6,8.8,20.4,15,25c4.5,3.3,9.1,4.1,12.2,7.3&#10;&#9;&#9;&#9;&#9;&#9;&#9;&#9;C548.7,231.7,552.9,237.6,556.2,238.9L556.2,238.9z" class="st3"/>
					</g>
					<g>
						<path d="M398.6,236.7c0.3-0.2-5.5,22-5.2,21.8c5.4-4,11.1-15.4,12.1-23.3c0.8-6.1-1.7-13.5-1-16.9&#10;&#9;&#9;&#9;&#9;&#9;&#9;&#9;c0.9-4.2,3.9-8.9,4-13.6c-2.7,3.4-3.4,9.3-5.4,13.9c-1.7,4-5.5,7-7.9,11.1c-3.1,5.4-8.5,20.9-3.3,28.8&#10;&#9;&#9;&#9;&#9;&#9;&#9;&#9;C392,258.8,398.4,236.5,398.6,236.7L398.6,236.7z" class="st3"/>
					</g>
					<g>
						<path d="M532.7,192.3c0.2,0.2-11.6,1-11.4,1.2c5.7,4.3,17.6,6.3,26.6,4.6c5.8-1.1,8.8-4.4,12.5-5.5&#10;&#9;&#9;&#9;&#9;&#9;&#9;&#9;c4.9-1.4,11.4,1.3,15.2-0.9c-4-1.6-10.2-0.2-14.8-0.9c-3.8-0.5-7.9-3.2-12.3-4.2c-7.8-1.8-22.8-0.9-27.3,5.6&#10;&#9;&#9;&#9;&#9;&#9;&#9;&#9;C520.9,192.4,532.8,192,532.7,192.3L532.7,192.3z" class="st3"/>
					</g>
					<g>
						<path d="M429.5,230.2c0.2,0.2-12.6,0.8-12.4,1c6.1,5.3,17.7,5.7,27.1,2.7c5.1-1.6,8.8-4.8,13.1-6&#10;&#9;&#9;&#9;&#9;&#9;&#9;&#9;c4.3-1.2,11.8-0.5,15-3.2c-5,0-12.2,2.4-16.6,1.3c-7.9-2-19.8-9.9-38.5,4.2C416.9,230.3,429.7,230,429.5,230.2L429.5,230.2z" class="st3"/>
					</g>
					<g>
						<path d="M560.3,222c-0.2,0.4-6.5-12.9-6.7-12.5c-2.9,10,2.5,21.4,7.6,28c2.9,3.8,6.9,6.3,9,10.4&#10;&#9;&#9;&#9;&#9;&#9;&#9;&#9;c1.9,3.6,3.9,9.4,6.2,12.3c1-2.6-3.9-9.4-5.1-12.9c-1.3-3.7,0.5-10.4-1.2-17c-2-8-9.2-18.9-14.8-21.6&#10;&#9;&#9;&#9;&#9;&#9;&#9;&#9;C554.9,208.4,560.7,222.1,560.3,222L560.3,222z" class="st3"/>
					</g>
					<g>
						<path d="M460.2,193.4c0.4-0.1-14.3,11.5-13.8,11.4c12.4-1.9,24.7-9.5,29.2-19.3c1.4-3.1,1-4.2,3.6-6.7&#10;&#9;&#9;&#9;&#9;&#9;&#9;&#9;c3.3-3.1,9.5-5,10.7-8.9c-4,2.1-7.3,5.2-11.3,7.7c-2.9,1.8-30.5,7.5-32.8,26C445.7,204.1,460.2,193,460.2,193.4L460.2,193.4z" class="st3"/>
					</g>
					<g>
						<path d="M494.5,188.1c0.2,0.1-11.9,4.6-11.7,4.7c8.4,3.6,26-1.1,33.2-8.6c1.9-2,2.1-3.6,4.6-5&#10;&#9;&#9;&#9;&#9;&#9;&#9;&#9;c3.8-2,11.1-2.7,14.1-5.2c-4.8-0.2-9.6,2.8-14,3.6c-3,0.6-31-2.7-38.2,14.2C482.4,192.1,494.6,187.9,494.5,188.1L494.5,188.1z" class="st3"/>
					</g>
					<g>
						<path d="M409.3,256.4c0.3,0.1-13.7,5.8-13.4,5.9c20.3,5.2,33.3-14.5,37.9-17c3.7-2,9-3.7,11.9-6.4&#10;&#9;&#9;&#9;&#9;&#9;&#9;&#9;c-2.6-0.8-9,4.1-12.5,5.4c-3.6,1.3-10.2-0.4-16.6,1.2c-8.4,2.1-18.5,9.2-21.3,15.8C395.3,261.5,409.4,256.1,409.3,256.4&#10;&#9;&#9;&#9;&#9;&#9;&#9;&#9;L409.3,256.4z" class="st3"/>
					</g>
					<g>
						<path d="M529.7,225.3c-1.6-3.3-8.3-5.1-11.6-7.3c-2.6-1.7-11.7-23-35.3-21.9c-0.4,0,10.1,7.2,9.7,7.3&#10;&#9;&#9;&#9;&#9;&#9;&#9;&#9;c0.1,0.3-10.7-6.6-10.6-6.3c5.4,18.8,31.9,20.1,35.5,21.7C521.9,221,525.2,223.8,529.7,225.3L529.7,225.3z" class="st3"/>
					</g>
					<g>
						<path d="M603.3,218.8c-15.1-5.3-7.9-4.4-17.6-10.4c-6.5-4-19.4-9.2-28-4c-0.3,0.2,15.2,4.9,14.9,5.1&#10;&#9;&#9;&#9;&#9;&#9;&#9;&#9;c0.2,0.3-15.5-3.8-15.2-3.4c3.9,5.5,14,11,21.9,12.5c6.9,1.3,12.9-1.6,17.7-0.7c2.6,0.5,9.6,3.5,12.7,4.5&#10;&#9;&#9;&#9;&#9;&#9;&#9;&#9;C608.7,220.3,610.9,221.5,603.3,218.8L603.3,218.8z" class="st3"/>
					</g>
					<g>
						<path d="M424.5,213.2c0.3-0.1-9.2,14.3-8.9,14.2c21.6-8.4,21.9-32.7,23.2-35c2-3.5,6.7-8.1,8.1-11.8&#10;&#9;&#9;&#9;&#9;&#9;&#9;&#9;c-2.6,1-5.9,7-8.6,10.4c-3.7,4.7-25.9,14.9-23.5,35.6C414.7,227.1,424.4,212.9,424.5,213.2L424.5,213.2z" class="st3"/>
					</g>
					<g>
						<path d="M604.6,253.7c-2.9-5.5-3.3-8.9-6.7-14.2c-4.1-6.4-13.7-15.1-22.5-16.9c-0.5-0.1,9.4,11.2,9,11.1&#10;&#9;&#9;&#9;&#9;&#9;&#9;&#9;c0.1,0.4-10.2-10.6-10.2-10.3c4.3,22.8,26.4,29.3,29.8,32c3.9,3.1,6,7.4,9.9,9.9C612.3,260.6,606.9,258.2,604.6,253.7&#10;&#9;&#9;&#9;&#9;&#9;&#9;&#9;L604.6,253.7z" class="st3"/>
					</g>
				</g>
			</g>
		</g>
	</g>
	<g>
		<path d="M374.3,334.2c2.8-2,5.2-4.4,7.1-7.3l-3-2.2c-2,2.6-4,4.6-6.1,6c-2.1,1.4-4.7,2.1-7.9,2.1&#10;&#9;&#9;&#9;c-3.4,0-6-1.4-7.9-4.3c-1.9-2.8-2.8-7.3-2.8-13.5H383l0.2-2c0.1-1.6,0.2-3,0.2-4.2c0-3.8-0.9-7.2-2.8-10.2c-1.9-3-4.5-5.3-7.7-6.9&#10;&#9;&#9;&#9;c-1.6-0.8-3.3-1.4-5-1.8c-1.3,1.3-2.6,2.7-3.8,4.1c1.7,0.5,3,1.7,4,3.5c1.4,2.6,2.1,6.9,2.1,13h-16.3c-1,2.4-1.8,4.9-2.4,7.3&#10;&#9;&#9;&#9;c-1.5,5.4-1.5,10.9-0.2,16.2c3.3,2,7.2,3,11.6,3C367.7,337.1,371.5,336.1,374.3,334.2z" class="st2"/>
		<path d="M343.5,315.7c2.6-9.6,7.7-18.6,14.7-26.2c-2.6,0.4-5.1,1.2-7.3,2.5c-3.3,1.9-5.8,4.6-7.7,8.2&#10;&#9;&#9;&#9;c-1.9,3.6-2.8,7.9-2.8,13c0,3.5,0.5,6.7,1.6,9.6C342.3,320.4,342.8,318,343.5,315.7z" class="st2"/>
	</g>
	<path d="M620.1,367.1c-29.5-11.6-61-20.1-92.8-20.3c-40.1,0.6-77.9,16.9-117.4,22.4c-16.1,2.1-33.8,1.1-47.5-8.7&#10;&#9;&#9;c-14-10.1-22-27-16.8-44c3.3-12,10.3-22.6,19.6-30.6c3.1-2.7,6.5-4.9,9.7-7.2c6.3-4.6,13.1-9.9,16.8-16.6c-1.4,3.8-4.1,6.9-6.8,9.9&#10;&#9;&#9;c-5.3,6-12.3,10.4-18.1,15.7c-8.4,8.1-14.8,18.5-17.6,29.7c-3.8,13.4,1.2,26.7,11.2,36c12.9,12.4,31.9,13.9,49,11.7&#10;&#9;&#9;c23.7-3.1,46.6-10.3,70.1-15.2c23.4-5.2,48-7.9,71.9-3.9c23.7,3.8,46.9,11,68.9,20.7c0.1,0,0.1,0.2,0.1,0.3&#10;&#9;&#9;C620.4,367.1,620.2,367.1,620.1,367.1L620.1,367.1z" class="st4"/>
</g>
<g>
	<defs>
		<rect height="539.8" width="959.9" y="-0.1" x="-979.8" id="SVGID_00000139252356433909578660000002673338692337652402_"/>
	</defs>
	<clipPath id="SVGID_00000134938617531587819540000004708146476812380054_">
		
	</clipPath>
	<g style="opacity:0.13;clip-path:url(#SVGID_00000134938617531587819540000004708146476812380054_);">
		<path d="M-342.3-115.1c36.8,17.1,76.3,30.3,116.9,33c51.3,2.3,100.7-15.6,151.6-19.6c20.7-1.5,43.3,1.2,60,14.8&#10;&#9;&#9;&#9;C3.4-73,12.4-50.8,4.4-29.4c-5.1,15-14.9,28-27.4,37.6c-4.1,3.2-8.7,5.8-13,8.4c-8.4,5.4-17.5,11.7-22.7,19.9&#10;&#9;&#9;&#9;c2-4.8,5.8-8.6,9.4-12.1C-42,17.2-32.8,12.1-25,5.7C-13.6-3.9-4.6-16.7-0.1-30.9c5.9-16.8,0.5-34.2-11.6-46.9&#10;&#9;&#9;&#9;C-27.3-94.5-51.4-98-73.4-96.4c-30.5,2.1-60.3,9.6-90.6,14c-30.3,4.9-61.9,6.4-92.1-0.6c-30-6.7-59.1-17.6-86.4-31.7&#10;&#9;&#9;&#9;c-0.1-0.1-0.2-0.2-0.1-0.4C-342.5-115.1-342.4-115.2-342.3-115.1L-342.3-115.1z" class="st4"/>
	</g>
</g>
<g>
	<defs>
		<rect height="539.8" width="959.9" y="560" x="-979.9" id="SVGID_00000122697275893854954740000001477624476233162173_"/>
	</defs>
	<clipPath id="SVGID_00000180363689318436844500000013755291678195644562_">
		
	</clipPath>
	<g style="opacity:0.13;clip-path:url(#SVGID_00000180363689318436844500000013755291678195644562_);">
		<path d="M-342.4,444.9c36.8,17.1,76.3,30.3,116.9,33c51.3,2.3,100.7-15.6,151.6-19.6c20.7-1.5,43.3,1.2,60,14.8&#10;&#9;&#9;&#9;C3.3,487,12.3,509.2,4.3,530.6c-5.1,15-14.9,28-27.4,37.6c-4.1,3.2-8.7,5.8-13,8.4c-8.4,5.4-17.5,11.7-22.7,19.9&#10;&#9;&#9;&#9;c2-4.8,5.8-8.6,9.4-12.1c7.3-7.2,16.5-12.3,24.3-18.7c11.4-9.6,20.3-22.4,24.8-36.6c5.9-16.8,0.5-34.2-11.6-46.9&#10;&#9;&#9;&#9;c-15.5-16.8-39.7-20.2-61.6-18.7c-30.5,2.1-60.3,9.6-90.6,14c-30.3,4.9-61.9,6.4-92.1-0.6c-30-6.7-59.1-17.6-86.4-31.7&#10;&#9;&#9;&#9;c-0.1-0.1-0.2-0.2-0.1-0.4C-342.6,444.9-342.5,444.8-342.4,444.9L-342.4,444.9z" class="st4"/>
	</g>
</g>
<g>
	<defs>
		<rect height="539.8" width="959.9" y="-0.1" x="979.8" id="SVGID_00000012456780751505980830000004463852341143842196_"/>
	</defs>
	<clipPath id="SVGID_00000034088692388045580650000008453504906236875663_">
		
	</clipPath>
	<g style="opacity:0.13;clip-path:url(#SVGID_00000034088692388045580650000008453504906236875663_);">
		<path d="M1305.5,638.8c-37.7-14.9-78-25.7-118.7-26c-51.4,0.8-99.6,21.6-150.2,28.6c-20.5,2.7-43.3,1.4-60.8-11.1&#10;&#9;&#9;&#9;c-17.9-12.9-28.2-34.5-21.5-56.3c4.2-15.3,13.2-28.9,25.1-39.2c3.9-3.4,8.3-6.3,12.4-9.2c8.1-5.9,16.7-12.7,21.5-21.2&#10;&#9;&#9;&#9;c-1.8,4.9-5.3,8.9-8.7,12.7c-6.8,7.6-15.7,13.3-23.1,20.1c-10.8,10.3-19,23.6-22.6,38c-4.8,17.2,1.5,34.2,14.4,46.1&#10;&#9;&#9;&#9;c16.5,15.8,40.8,17.8,62.6,14.9c30.4-4,59.6-13.2,89.6-19.4c30-6.7,61.4-10.1,92-4.9c30.4,4.9,60,14.1,88.1,26.5&#10;&#9;&#9;&#9;c0.1,0.1,0.2,0.2,0.1,0.3C1305.8,638.8,1305.6,638.9,1305.5,638.8L1305.5,638.8z" class="st4"/>
	</g>
</g>
<g>
	<defs>
		<rect height="539.8" width="959.9" y="560" x="0.1" id="SVGID_00000157999230981586702530000014747850807495140781_"/>
	</defs>
	<clipPath id="SVGID_00000170971923596550786870000007515578426783793318_">
		
	</clipPath>
	<g style="opacity:0.13;clip-path:url(#SVGID_00000170971923596550786870000007515578426783793318_);">
		<path d="M637.7,444.9c36.8,17.1,76.3,30.3,116.9,33c51.3,2.3,100.7-15.6,151.6-19.6c20.7-1.5,43.3,1.2,60,14.8&#10;&#9;&#9;&#9;c17.1,13.9,26.1,36.2,18.1,57.5c-5.1,15-14.9,28-27.4,37.6c-4.1,3.2-8.7,5.8-13,8.4c-8.4,5.4-17.5,11.7-22.7,19.9&#10;&#9;&#9;&#9;c2-4.8,5.8-8.6,9.4-12.1c7.3-7.2,16.5-12.3,24.3-18.7c11.4-9.6,20.3-22.4,24.8-36.6c5.9-16.8,0.5-34.2-11.6-46.9&#10;&#9;&#9;&#9;c-15.5-16.8-39.7-20.2-61.6-18.7c-30.5,2.1-60.3,9.6-90.6,14c-30.3,4.9-61.9,6.4-92.1-0.6c-30-6.7-59.1-17.6-86.4-31.7&#10;&#9;&#9;&#9;c-0.1-0.1-0.2-0.2-0.1-0.4C637.4,444.9,637.6,444.9,637.7,444.9L637.7,444.9z" class="st4"/>
	</g>
</g>
<g>
	<defs>
		<rect height="539.8" width="959.9" y="560" x="980.1" id="SVGID_00000078016602007276019230000008635984126990876304_"/>
	</defs>
	<clipPath id="SVGID_00000127021467460878578470000005182087875284565156_">
		
	</clipPath>
</g>
</svg>